<svg width="16" height="17" viewBox="0 0 16 17" fill="none" xmlns="http://www.w3.org/2000/svg">
<path d="M14.5221 15.8175C14.9984 15.9233 15.4233 15.4984 15.3175 15.0221L14.5857 11.7293C15.0749 10.7336 15.3334 9.63481 15.3334 8.50002C15.3334 4.44993 12.0501 1.16669 8.00002 1.16669C3.94993 1.16669 0.666687 4.44993 0.666687 8.50002C0.666687 12.5501 3.94993 15.8334 8.00002 15.8334C9.13481 15.8334 10.2336 15.5749 11.2293 15.0857L14.5221 15.8175ZM13.2949 11.3249C13.2198 11.4654 13.1974 11.6283 13.232 11.7839L13.7886 14.2886L11.2839 13.732C11.1283 13.6974 10.9654 13.7198 10.8249 13.7949C9.96327 14.2557 9.00002 14.5 8.00002 14.5C4.68631 14.5 2.00002 11.8137 2.00002 8.50002C2.00002 5.18631 4.68631 2.50002 8.00002 2.50002C11.3137 2.50002 14 5.18631 14 8.50002C14 9.50002 13.7557 10.4633 13.2949 11.3249ZM6.00002 9.83335C6.7364 9.83335 7.33335 9.2364 7.33335 8.50002C7.33335 7.76364 6.7364 7.16669 6.00002 7.16669C5.26364 7.16669 4.66669 7.76364 4.66669 8.50002C4.66669 9.2364 5.26364 9.83335 6.00002 9.83335ZM11.3334 8.50002C11.3334 9.2364 10.7364 9.83335 10 9.83335C9.26364 9.83335 8.66669 9.2364 8.66669 8.50002C8.66669 7.76364 9.26364 7.16669 10 7.16669C10.7364 7.16669 11.3334 7.76364 11.3334 8.50002Z" fill="#6837EF"/>
</svg>
